<svg xmlns="http://www.w3.org/2000/svg" width="128" height="128" xmlns:v="https://vecta.io/nano"><g transform="matrix(.804688 0 0 .804688 12.612792 12.612792)"><svg viewBox="0 0 142 142" preserveAspectRatio="xMidYMid meet" height="128" width="128"><g transform="translate(-.156 -.156)"><svg height="142.311" width="142.311"><svg height="142.311" width="142.311"><g fill="#f74000"><path d="M0 71.155C0 31.857 31.857 0 71.155 0s71.155 31.857 71.156 71.155-31.857 71.155-71.156 71.156S0 110.454 0 71.155zm71.155 63.731c35.197 0 63.731-28.533 63.731-63.731S106.353 7.424 71.155 7.425 7.424 35.958 7.425 71.155s28.533 63.731 63.73 63.731z" stroke="transparent"/><circle cx="71.155" cy="71.155" r="68.309"/></g><g transform="translate(42.022 29.989)"><svg height="82.332" width="58.266"><svg height="82.332" width="58.266"><svg height="82.332" width="58.266"><svg height="82.332" width="58.266"><svg height="82.332" width="58.266"><svg width="58.266" viewBox="2.55 -35.4 25.3 35.75" height="82.332"><path d="M15.5.35Q11.85.35 8.93-.9 6-2.15 4.3-4.5q-1.7-2.35-1.75-5.55h0 7.5q.15 2.15 1.53 3.4 1.37 1.25 3.77 1.25h0q2.45 0 3.85-1.18 1.4-1.17 1.4-3.07h0q0-1.55-.95-2.55-.95-1-2.37-1.58-1.43-.57-3.93-1.27h0q-3.4-1-5.52-1.98Q5.7-18 4.17-19.98q-1.52-1.97-1.52-5.27h0q0-3.1 1.55-5.4 1.55-2.3 4.35-3.53 2.8-1.22 6.4-1.22h0q5.4 0 8.78 2.63 3.37 2.62 3.72 7.32h0-7.7q-.1-1.8-1.52-2.98-1.43-1.17-3.78-1.17h0q-2.05 0-3.27 1.05-1.23 1.05-1.23 3.05h0q0 1.4.93 2.32.92.93 2.3 1.5 1.37.58 3.87 1.33h0q3.4 1 5.55 2 2.15 1 3.7 3 1.55 2 1.55 5.25h0q0 2.8-1.45 5.2-1.45 2.4-4.25 3.83Q19.35.35 15.5.35h0z" fill="#ffeee8"/></svg></svg></svg></svg></svg></svg></g></svg></svg></g></svg></g></svg>